
<svg width="38" height="35" viewBox="0 0 38 35" fill="none" xmlns="http://www.w3.org/2000/svg">
    <path d="M33.4014 1.55512C30.5741 -0.0767104 26.6766 -0.145483 23.2318 1.37607C20.0443 2.78463 17.7466 5.88832 16.3885 8.22077C15.7771 8.07169 15.1229 8.36237 14.839 8.95399C14.5674 9.5197 14.726 10.176 15.178 10.5682C15.0542 10.8439 14.9785 11.0291 14.95 11.1012L8.35313 25.5911C7.68796 25.2847 6.89551 25.5577 6.56738 26.2187C6.23312 26.892 6.5075 27.709 7.18078 28.0439L7.2257 28.0664L5.74167 31.3281H2.05384C1.30225 31.3281 0.692261 31.9381 0.692261 32.6897C0.692261 33.4413 1.30225 34.0513 2.05384 34.0513H8.86173C9.61332 34.0513 10.2233 33.4413 10.2233 32.6897C10.2233 31.9381 9.61332 31.3281 8.86173 31.3281H8.73373L9.67797 29.2537C9.80256 29.2898 9.9285 29.3143 10.0544 29.3143C10.5548 29.3143 11.0368 29.0372 11.2751 28.5587C11.587 27.931 11.365 27.1841 10.789 26.8138L17.6249 11.799C17.8094 11.8841 18.002 11.9264 18.1933 11.9264C18.7005 11.9264 19.1872 11.6418 19.4215 11.1537C19.7332 10.5049 19.48 9.73556 18.8632 9.38564C20.028 7.4229 21.8927 4.9455 24.3333 3.86713C26.9571 2.70775 29.9825 2.72547 32.0405 3.91341C33.554 4.78689 34.4233 6.17637 34.6261 8.04442C35.006 11.543 34.684 13.889 33.6717 15.0184C33.5784 15.1226 33.4757 15.2118 33.3708 15.2961V18.344C34.2095 18.0608 35.0149 17.5986 35.6984 16.8368C37.2723 15.0838 37.8067 12.1114 37.3336 7.75096C37.041 5.04895 35.6439 2.84864 33.4014 1.55512Z" fill="#FF7EB6"/>
    <path d="M29.5237 24.5204C30.4122 24.5204 31.2523 24.7225 32.0086 25.0752V18.6615V15.8989V14.3086C32.0086 13.5563 32.0801 13.6278 31.3279 13.6278H28.6612C27.909 13.6278 20.3215 14.2521 18.3173 24.1596L17.0312 32.3494C17.0312 33.1016 17.6406 34.0513 18.3928 34.0513H24.8542C24.0767 33.0499 23.609 31.7973 23.609 30.435C23.609 27.1733 26.2628 24.5204 29.5237 24.5204Z" fill="#FF7EB6"/>
    <path d="M32.6894 27.1698C32.4804 26.9676 32.253 26.7852 32.0087 26.6252C31.2932 26.1569 30.4402 25.8818 29.5238 25.8818C27.013 25.8818 24.9707 27.9242 24.9707 30.435C24.9707 31.9095 25.6787 33.2193 26.7694 34.0513C27.1493 34.3413 27.5748 34.5721 28.0343 34.7321C28.502 34.8947 29.0018 34.9874 29.5239 34.9874C30.0461 34.9874 30.5458 34.8947 31.0135 34.7321C31.4955 34.5645 31.9414 34.3188 32.3349 34.0091C32.7052 33.7177 33.0314 33.3725 33.2962 32.9818C33.7891 32.2539 34.0778 31.3771 34.0778 30.4342C34.0778 29.5425 33.8164 28.7125 33.3718 28.01C33.1761 27.7035 32.9488 27.4211 32.6894 27.1698ZM29.5237 28.1509C30.7846 28.1509 31.8071 29.1734 31.8071 30.4342C31.8071 31.6951 30.7846 32.7176 29.5237 32.7176C28.2629 32.7176 27.2404 31.6951 27.2404 30.4342C27.2404 29.1734 28.2623 28.1509 29.5237 28.1509Z" fill="#FF7EB6"/>
</svg>
